<?xml version="1.0" standalone="no"?>
<!DOCTYPE svg PUBLIC "-//W3C//DTD SVG 20010904//EN"
 "http://www.w3.org/TR/2001/REC-SVG-20010904/DTD/svg10.dtd">
<svg version="1.0" xmlns="http://www.w3.org/2000/svg"
 width="1227.000000pt" height="1227.000000pt" viewBox="0 0 1227.000000 1227.000000"
 preserveAspectRatio="xMidYMid meet">
<metadata>
Created by potrace 1.11, written by Peter Selinger 2001-2013
</metadata>
<g transform="translate(0.000000,1227.000000) scale(0.100000,-0.100000)"
fill="#000000" stroke="none">
<path d="M1590 12255 c-676 -93 -1240 -590 -1415 -1246 -58 -220 -55 106 -55
-4874 0 -4980 -3 -4654 55 -4874 78 -292 226 -546 449 -766 218 -217 470 -363
757 -440 220 -58 -95 -55 4754 -55 4849 0 4534 -3 4754 55 287 77 539 223 757
440 223 220 371 474 449 766 58 220 55 -106 55 4869 0 3238 -3 4591 -11 4655
-24 197 -102 433 -200 609 -246 438 -657 737 -1164 848 l-100 22 -4495 2
c-3658 2 -4513 0 -4590 -11z m6015 -1692 c235 -53 369 -141 440 -288 67 -139
65 -105 65 -1325 l0 -1100 845 0 c734 0 856 -2 923 -16 270 -56 432 -216 509
-504 16 -60 18 -195 21 -1900 4 -2168 0 -2288 -83 -2615 -137 -542 -416 -918
-876 -1181 -254 -145 -556 -240 -924 -290 -187 -26 -720 -26 -920 -1 -711 92
-1173 358 -1473 849 -247 404 -387 1013 -306 1333 49 190 211 345 419 401 90
24 293 29 383 10 109 -23 192 -68 261 -141 106 -114 152 -218 235 -531 66
-253 124 -422 179 -529 31 -61 63 -101 132 -170 95 -95 165 -143 259 -175 207
-73 491 -77 701 -9 313 100 494 349 576 789 l24 125 3 1723 3 1722 -441 0
-440 0 0 -777 c0 -771 -5 -902 -35 -1018 -53 -202 -199 -347 -405 -402 -90
-24 -283 -24 -364 1 -104 31 -177 75 -252 150 -85 85 -128 167 -155 299 -18
88 -19 164 -19 1762 0 919 -3 1863 -7 2098 l-6 429 -419 -1514 c-664 -2404
-687 -2484 -744 -2659 -30 -91 -72 -195 -92 -230 -20 -35 -77 -105 -127 -155
-70 -71 -107 -99 -165 -127 -113 -55 -176 -69 -346 -74 -194 -7 -281 9 -414
74 -79 39 -109 61 -180 132 -76 76 -93 100 -148 211 -81 163 -76 147 -707
2415 -289 1040 -530 1901 -535 1915 -6 16 -8 -706 -4 -2025 6 -2179 6 -2195
-41 -2344 -77 -244 -293 -391 -575 -391 -293 0 -500 150 -581 420 l-22 75 -8
2450 c-6 1613 -5 2486 1 2556 6 59 17 131 26 160 51 175 163 282 364 348 150
49 193 53 610 58 872 11 966 -35 1139 -552 27 -82 269 -897 537 -1810 267
-913 489 -1663 493 -1667 3 -4 224 741 491 1655 266 914 506 1730 533 1812
120 370 209 477 442 535 130 32 246 38 690 36 381 -3 428 -5 510 -23z"/>
</g>
</svg>
