<?xml version="1.0" standalone="no"?>
<!DOCTYPE svg PUBLIC "-//W3C//DTD SVG 20010904//EN"
 "http://www.w3.org/TR/2001/REC-SVG-20010904/DTD/svg10.dtd">
<svg version="1.0" xmlns="http://www.w3.org/2000/svg"
 width="1227.000000pt" height="1227.000000pt" viewBox="0 0 1227.000000 1227.000000"
 preserveAspectRatio="xMidYMid meet">
<metadata>
Created by potrace 1.11, written by Peter Selinger 2001-2013
</metadata>
<g transform="translate(0.000000,1227.000000) scale(0.100000,-0.100000)"
fill="#000000" stroke="none">
<path d="M1640 12263 c-292 -31 -596 -151 -836 -328 -104 -77 -294 -270 -365
-370 -163 -230 -263 -476 -304 -750 -13 -88 -15 -651 -15 -4670 0 -3252 3
-4596 11 -4660 33 -269 141 -544 308 -780 72 -103 283 -314 386 -386 230 -163
477 -263 750 -304 88 -13 639 -15 4560 -15 3921 0 4472 2 4560 15 379 57 719
233 981 508 228 239 368 504 446 842 l23 100 3 4610 c2 3423 0 4634 -8 4705
-25 203 -105 446 -203 619 -82 143 -156 240 -282 367 -218 219 -449 357 -735
439 -247 70 149 65 -4792 63 -2449 0 -4469 -3 -4488 -5z m5850 -1683 c277 -34
475 -140 550 -294 68 -141 64 -62 68 -1308 l3 -1127 872 -3 c977 -4 912 1
1076 -79 197 -97 310 -279 342 -554 7 -61 9 -702 6 -1990 -4 -2019 -4 -2012
-52 -2273 -63 -342 -212 -675 -411 -913 -276 -332 -717 -570 -1229 -663 -237
-44 -334 -51 -660 -50 -261 0 -336 4 -475 22 -487 66 -827 202 -1112 446 -358
306 -614 854 -658 1409 -23 287 37 472 196 600 116 94 235 135 419 143 382 18
566 -153 685 -636 75 -302 154 -522 225 -630 60 -91 186 -208 272 -252 133
-71 331 -106 528 -94 144 8 259 36 374 92 78 38 109 60 181 132 153 153 229
319 287 632 16 88 18 222 20 1823 l4 1727 -447 0 -446 0 3 -832 c2 -939 4
-920 -72 -1076 -91 -186 -261 -291 -500 -308 -247 -17 -472 101 -569 300 -82
167 -74 -59 -80 2341 -5 2026 -6 2137 -22 2085 -9 -30 -254 -912 -543 -1960
-537 -1941 -603 -2174 -656 -2306 -54 -137 -147 -256 -265 -340 -134 -95 -270
-129 -498 -122 -127 4 -164 9 -231 31 -229 75 -389 242 -491 513 -38 101 -132
433 -669 2364 -284 1020 -518 1857 -521 1859 -3 3 -4 -946 -4 -2109 2 -2300 5
-2182 -51 -2323 -67 -170 -224 -296 -412 -332 -321 -61 -608 78 -706 341 -53
140 -51 32 -51 2705 0 2722 -4 2550 60 2686 72 155 227 251 485 299 88 17 152
19 545 19 381 0 458 -3 538 -18 300 -56 384 -147 521 -567 27 -80 266 -889
532 -1797 266 -909 487 -1653 490 -1653 3 0 227 762 499 1693 271 930 513
1751 537 1822 51 150 118 294 162 346 84 101 227 156 461 178 127 12 793 13
890 1z"/>
</g>
</svg>
