<?xml version="1.0" standalone="no"?>
<!DOCTYPE svg PUBLIC "-//W3C//DTD SVG 20010904//EN"
 "http://www.w3.org/TR/2001/REC-SVG-20010904/DTD/svg10.dtd">
<svg version="1.0" xmlns="http://www.w3.org/2000/svg"
 width="1227.000000pt" height="1227.000000pt" viewBox="0 0 1227.000000 1227.000000"
 preserveAspectRatio="xMidYMid meet">
<metadata>
Created by potrace 1.11, written by Peter Selinger 2001-2013
</metadata>
<g transform="translate(0.000000,1227.000000) scale(0.100000,-0.100000)"
fill="#000000" stroke="none">
<path d="M1575 12255 c-333 -53 -626 -188 -869 -401 -292 -256 -475 -570 -558
-959 l-23 -110 0 -4645 c0 -3760 2 -4657 13 -4710 38 -190 74 -309 137 -445
211 -456 639 -812 1123 -934 80 -20 108 -26 202 -38 71 -10 8996 -10 9072 -1
370 48 709 216 979 487 219 220 367 474 444 762 58 220 55 -108 54 4884 0
4985 4 4649 -55 4865 -179 657 -731 1148 -1399 1244 -86 13 -736 15 -4570 14
-3571 0 -4486 -3 -4550 -13z"/>
</g>
</svg>
